<?xml version="1.0" encoding="UTF-8"?>
<svg version="1.1" xmlns="http://www.w3.org/2000/svg" width="251" height="201">
<path d="M0 0 C82.83 0 165.66 0 251 0 C251 66.33 251 132.66 251 201 C168.17 201 85.34 201 0 201 C0 134.67 0 68.34 0 0 Z " fill="#FCFBFB" transform="translate(0,0)"/>
<path d="M0 0 C1.91582886 -0.03942719 1.91582886 -0.03942719 3.87036133 -0.07965088 C8.09297926 -0.16344077 12.31559667 -0.20523081 16.53881836 -0.24511719 C17.99902572 -0.26132297 19.4592302 -0.2777911 20.91943169 -0.29451752 C27.78419588 -0.3706525 34.64879039 -0.42758394 41.51389509 -0.46096539 C49.40897526 -0.50000085 57.29955215 -0.60512435 65.19304663 -0.76696897 C71.31395032 -0.88811035 77.43357271 -0.94688563 83.55565065 -0.96008945 C87.20380762 -0.96944213 90.84714717 -1.00454263 94.4940052 -1.10593414 C118.33817735 -1.73522281 118.33817735 -1.73522281 124.91329956 4.17883301 C127.84388241 7.43857061 130.13239232 10.9193575 132.22530937 14.7617569 C133.81271324 17.59393224 135.74763682 20.03302869 137.75366211 22.58300781 C138.4484668 23.52144531 139.14327148 24.45988281 139.85913086 25.42675781 C143.03300118 29.69296059 146.30256374 33.88532027 149.56616211 38.08300781 C150.1571167 38.84468262 150.74807129 39.60635742 151.35693359 40.39111328 C151.92613525 41.12217285 152.49533691 41.85323242 153.08178711 42.60644531 C153.62762451 43.30906494 154.17346191 44.01168457 154.73583984 44.7355957 C156.18305914 46.54188099 157.69652728 48.2557366 159.24194336 49.97753906 C161.31616211 52.70800781 161.31616211 52.70800781 161.65600586 55.00878906 C161.27327905 56.92242311 160.79701708 58.81664493 160.31616211 60.70800781 C159.32616211 61.20300781 159.32616211 61.20300781 158.31616211 61.70800781 C157.39448242 61.24394531 156.47280273 60.77988281 155.52319336 60.30175781 C149.01295538 57.33258993 141.39867291 58.23371368 134.39233398 58.18066406 C133.25731445 58.15875 132.12229492 58.13683594 130.95288086 58.11425781 C129.40153442 58.10362305 129.40153442 58.10362305 127.81884766 58.09277344 C126.99296143 57.96580078 126.1670752 57.83882812 125.31616211 57.70800781 C123.02602558 54.27280301 123.13773238 52.72267681 123.31616211 48.70800781 C123.97616211 48.70800781 124.63616211 48.70800781 125.31616211 48.70800781 C125.05901689 46.01857133 124.78590091 43.33233234 124.50366211 40.64550781 C124.4334082 39.89333984 124.3631543 39.14117187 124.29077148 38.36621094 C123.44520218 30.5531506 121.39575791 25.04618949 115.31616211 19.70800781 C114.38803711 18.87269531 114.38803711 18.87269531 113.44116211 18.02050781 C106.03272049 13.44470564 96.68682444 14.01685221 88.31616211 14.70800781 C82.93136581 16.16229586 79.35764567 19.02880234 76.31616211 23.70800781 C75.92428711 24.30613281 75.53241211 24.90425781 75.12866211 25.52050781 C74.09227132 27.88601666 74.09227132 27.88601666 74.44116211 31.33300781 C74.09348742 35.42784304 72.00875362 37.23634583 68.95825195 39.83837891 C66.45031356 41.85349411 63.90737689 43.80074867 61.31616211 45.70800781 C68.24616211 46.20300781 68.24616211 46.20300781 75.31616211 46.70800781 C76.43704123 52.31240342 76.43704123 52.31240342 74.37866211 55.89550781 C72.73534977 58.63546704 72.73534977 58.63546704 72.31616211 61.70800781 C74.62616211 62.03800781 76.93616211 62.36800781 79.31616211 62.70800781 C79.93365076 65.61020446 80.16530261 66.91870993 79.31616211 69.70800781 C77.26538086 71.82519531 77.26538086 71.82519531 74.62866211 74.02050781 C65.99739415 81.21119639 63.11383373 90.03737486 61.98022461 100.93847656 C61.7268569 103.859053 61.51785861 106.78340862 61.31616211 109.70800781 C64.94616211 109.70800781 68.57616211 109.70800781 72.31616211 109.70800781 C76.31616211 117.45800781 76.31616211 117.45800781 76.31616211 119.70800781 C64.94608161 119.80073554 53.57609124 119.87178707 42.20570946 119.9152565 C36.92582202 119.93612092 31.64619351 119.96441793 26.36645508 120.00976562 C21.27009159 120.05326381 16.17397698 120.07715354 11.07744217 120.08751678 C9.13418282 120.09490099 7.19093691 120.10932069 5.24778366 120.13092804 C2.52337076 120.16001478 -0.20001706 120.16396161 -2.92456055 120.16210938 C-3.72585388 120.17649048 -4.52714722 120.19087158 -5.35272217 120.20568848 C-10.58345041 120.16727225 -13.5988129 119.25503303 -17.68383789 115.70800781 C-22.15339379 110.66299946 -22.25491568 106.45393757 -22.18554688 100.03417969 C-22.19094986 99.0773378 -22.19635284 98.12049591 -22.20191956 97.13465881 C-22.21439461 93.98170745 -22.19792348 90.82967138 -22.17993164 87.67675781 C-22.18008666 85.48010205 -22.18157606 83.28344602 -22.18434143 81.08679199 C-22.18572488 76.48693729 -22.17317602 71.8873946 -22.15039062 67.28759766 C-22.12200648 61.39620994 -22.1247442 55.50534056 -22.13748074 49.61391449 C-22.14444105 45.07911769 -22.13664453 40.54444036 -22.12422371 36.00965881 C-22.11971266 33.83757485 -22.11936938 31.66547805 -22.12328911 29.49339294 C-22.12620471 26.45594058 -22.10967707 23.41919847 -22.08789062 20.38183594 C-22.09239227 19.48711075 -22.09689392 18.59238556 -22.10153198 17.67054749 C-22.04166573 12.63822154 -21.65884964 8.96267341 -18.68383789 4.70800781 C-13.30008491 -0.53184042 -7.07956107 0.06336691 0 0 Z " fill="#180879" transform="translate(29.683837890625,2.2919921875)"/>
<path d="M0 0 C7.7192796 -0.09286256 15.43850095 -0.16384714 23.15821266 -0.20724869 C26.74320901 -0.22808423 30.32782194 -0.25632651 33.91259766 -0.30175781 C37.3750419 -0.34536192 40.83711841 -0.36916743 44.29981613 -0.37950897 C46.25742482 -0.39044821 48.21488648 -0.42165128 50.17227173 -0.45318604 C61.33381726 -0.45599432 61.33381726 -0.45599432 66 4 C66.53473434 4.505383 67.06946869 5.01076599 67.6204071 5.53146362 C69.80403984 9.43868643 69.42536432 13.319537 69.40405273 17.72216797 C69.41091599 18.70797852 69.41777924 19.69378906 69.42485046 20.70947266 C69.4431619 23.97052385 69.43927427 27.23109588 69.43359375 30.4921875 C69.43815386 32.75896359 69.44345892 35.0257383 69.44947815 37.29251099 C69.45841811 42.0454876 69.45597645 46.79829627 69.44604492 51.55126953 C69.4345616 57.64007017 69.45475296 63.72829033 69.48396206 69.81701469 C69.50231645 74.49935587 69.50203295 79.18155781 69.49632454 83.86392593 C69.49617119 86.10859109 69.50222649 88.35326561 69.51461601 90.59789658 C69.52950713 93.73864784 69.51886151 96.87832512 69.50170898 100.01904297 C69.51137695 100.94496246 69.52104492 101.87088196 69.53100586 102.82485962 C69.46751736 108.38155009 68.72747822 111.60169957 65 116 C60.9936807 119.24024868 57.79859591 119.35553822 52.73046875 119.29296875 C52.04946609 119.28872391 51.36846344 119.28447906 50.66682434 119.28010559 C48.50663541 119.2634061 46.34740358 119.22577312 44.1875 119.1875 C42.71681042 119.17244174 41.24610611 119.15875534 39.77539062 119.14648438 C36.18328643 119.11353214 32.59173674 119.06181173 29 119 C29 115.04 29 111.08 29 107 C31.40345703 106.94392578 31.40345703 106.94392578 33.85546875 106.88671875 C35.96616899 106.82105252 38.07684503 106.75460541 40.1875 106.6875 C41.24259766 106.66494141 42.29769531 106.64238281 43.38476562 106.61914062 C44.40634766 106.58369141 45.42792969 106.54824219 46.48046875 106.51171875 C47.41785889 106.48553467 48.35524902 106.45935059 49.32104492 106.43237305 C52.48766664 105.92129248 54.40341876 104.857872 57 103 C58.68408668 100.69111306 58.68408668 100.69111306 59.875 98.0625 C60.30554688 97.20785156 60.73609375 96.35320312 61.1796875 95.47265625 C62.1112172 92.6647596 62.10963679 91.70241687 61 89 C57.19304617 81.94491124 53.06323109 78.1036074 46.046875 74.3828125 C44 73 44 73 42.875 69.625 C42.91625 68.75875 42.9575 67.8925 43 67 C42.01 66.67 41.02 66.34 40 66 C39.29788106 64.34795544 38.63028587 62.68076231 38 61 C37.01 60.505 37.01 60.505 36 60 C35.566875 59.0925 35.13375 58.185 34.6875 57.25 C33.22873481 53.97695873 33.22873481 53.97695873 30.83203125 52.04296875 C26.50686281 47.84110728 23.91729019 42.2732692 21 37.0625 C20.01210841 35.32175377 19.02419759 33.58101768 18.03456116 31.84126282 C17.36126273 30.65742897 16.68885298 29.47308926 16.01731873 28.28825378 C12.06749635 21.32923616 7.96725465 14.45980416 3.86132812 7.59204102 C3.0965918 6.30704712 3.0965918 6.30704712 2.31640625 4.99609375 C1.86724854 4.24513428 1.41809082 3.4941748 0.95532227 2.72045898 C0 1 0 1 0 0 Z " fill="#F7100C" transform="translate(174,3)"/>
<path d="M0 0 C0.96820175 -0.00700928 1.9364035 -0.01401855 2.9339447 -0.02124023 C6.12414496 -0.03879987 9.31345333 -0.02720523 12.50366211 -0.01367188 C14.72513499 -0.01636714 16.94660672 -0.02024985 19.16807556 -0.02526855 C23.81919611 -0.03116068 28.47000901 -0.02260873 33.12109375 -0.00390625 C39.08217095 0.01889607 45.04252827 0.00574981 51.00357914 -0.01819611 C55.58895797 -0.03265025 60.17416612 -0.02805001 64.75955009 -0.01768494 C66.95758588 -0.0150173 69.15563719 -0.0182887 71.35365486 -0.02760315 C74.42498973 -0.03776355 77.49515825 -0.02227455 80.56640625 0 C81.92791306 -0.01214539 81.92791306 -0.01214539 83.31692505 -0.02453613 C87.48080868 0.03140084 89.6580321 0.16601464 93.25926208 2.42492676 C97.79012392 7.26430118 96.21850586 8.06992953 96.21850586 16.51757812 C58.26850586 16.51757812 20.31850586 16.51757812 -18.78149414 16.51757812 C-18.78149414 8.21757812 -18.78149414 8.21757812 -15.78149414 4.51757812 C-10.56792859 0.12304997 -6.51069274 -0.05820876 0 0 Z " fill="#020202" transform="translate(85.781494140625,136.482421875)"/>
<path d="M0 0 C6.58358323 -0.07621035 13.16705222 -0.12866715 19.75097656 -0.16479492 C21.98962658 -0.17985964 24.22824719 -0.20031533 26.46679688 -0.22631836 C29.68887602 -0.26280283 32.91056411 -0.27974983 36.1328125 -0.29296875 C37.62846237 -0.31619453 37.62846237 -0.31619453 39.15432739 -0.33988953 C44.53652975 -0.34118622 48.36107654 -0.05715555 53 3 C56.61425283 6.85520302 56.43844135 11.05067982 56.2890625 16.08203125 C55.61929193 22.84309359 53.99661568 29.15479692 49 34 C45.94703205 35.85809083 43.6918195 36.24574642 40.13964844 36.22705078 C39.17895447 36.22689972 38.2182605 36.22674866 37.22845459 36.22659302 C36.19915833 36.21627045 35.16986206 36.20594788 34.109375 36.1953125 C33.04962463 36.1924826 31.98987427 36.18965271 30.89801025 36.18673706 C27.51522503 36.17554734 24.13270513 36.1504447 20.75 36.125 C18.45573299 36.11496865 16.16146183 36.10584307 13.8671875 36.09765625 C8.24470123 36.07561196 2.62236957 36.04214627 -3 36 C-2.85930804 33.87465341 -2.71229079 31.74972471 -2.5625 29.625 C-2.48128906 28.44164062 -2.40007813 27.25828125 -2.31640625 26.0390625 C-2 23 -2 23 -1 21 C11.21 21 23.42 21 36 21 C36 18.69 36 16.38 36 14 C35.1529248 14.02618408 34.30584961 14.05236816 33.43310547 14.0793457 C30.26861938 14.16492505 27.10472594 14.22742097 23.93945312 14.2746582 C22.57369497 14.2996928 21.20806933 14.33373218 19.84277344 14.37719727 C7.05297564 14.77396107 7.05297564 14.77396107 3.1328125 12.04296875 C0.96797188 8.9543042 0.67237667 7.9024403 0.36669922 4.30981445 C0.29313202 3.50195999 0.21956482 2.69410553 0.14376831 1.86177063 C0.09632477 1.24738632 0.04888123 0.63300201 0 0 Z " fill="#050505" transform="translate(65,159)"/>
<path d="M0 0 C16.83 0 33.66 0 51 0 C50.34 4.62 49.68 9.24 49 14 C38.44 14 27.88 14 17 14 C17 16.31 17 18.62 17 21 C27.23 21 37.46 21 48 21 C47 34 47 34 46 36 C29.5 36 13 36 -4 36 C-4 30.30042622 -3.97014668 25.68188631 -3.125 20.21484375 C-2.96257813 19.14097412 -2.80015625 18.06710449 -2.6328125 16.96069336 C-2.42398437 15.63303955 -2.21515625 14.30538574 -2 12.9375 C-1.01 6.5334375 -1.01 6.5334375 0 0 Z " fill="#040404" transform="translate(11,159)"/>
<path d="M0 0 C16.85512253 -0.37486064 33.7089331 -0.65642829 50.56727886 -0.82899475 C58.39629163 -0.91127609 66.22270543 -1.02329577 74.05004883 -1.20703125 C80.87789511 -1.36722768 87.70385905 -1.46989288 94.53353244 -1.50541592 C98.14634251 -1.52616648 101.7537716 -1.57437444 105.36484337 -1.69168091 C129.03631999 -2.43122912 129.03631999 -2.43122912 135.58364868 3.46191406 C138.51515778 6.72425537 140.80725223 10.20903425 142.9054966 14.05148315 C144.49593023 16.8828921 146.43122693 19.32414077 148.4375 21.875 C149.13230469 22.8134375 149.82710937 23.751875 150.54296875 24.71875 C153.71683907 28.98495278 156.98640163 33.17731245 160.25 37.375 C160.84095459 38.1366748 161.43190918 38.89834961 162.04077148 39.68310547 C162.60997314 40.41416504 163.1791748 41.14522461 163.765625 41.8984375 C164.3114624 42.60105713 164.8572998 43.30367676 165.41967773 44.02758789 C166.86689703 45.83387318 168.38036517 47.54772879 169.92578125 49.26953125 C172 52 172 52 172.33984375 54.30078125 C171.95711694 56.2144153 171.48085497 58.10863711 171 60 C170.01 60.495 170.01 60.495 169 61 C168.07832031 60.5359375 167.15664062 60.071875 166.20703125 59.59375 C159.69679327 56.62458212 152.0825108 57.52570587 145.07617188 57.47265625 C143.94115234 57.45074219 142.80613281 57.42882813 141.63671875 57.40625 C140.08537231 57.39561523 140.08537231 57.39561523 138.50268555 57.38476562 C137.67679932 57.25779297 136.85091309 57.13082031 136 57 C133.70986347 53.5647952 133.82157027 52.014669 134 48 C134.66 48 135.32 48 136 48 C135.74285478 45.31056352 135.4697388 42.62432453 135.1875 39.9375 C135.11724609 39.18533203 135.04699219 38.43316406 134.97460938 37.65820312 C134.11697434 29.7336554 131.99591083 24.53468692 126 19 C125.01 17.515 125.01 17.515 124 16 C126.64 16.33 129.28 16.66 132 17 C132.103125 16.38125 132.20625 15.7625 132.3125 15.125 C133 13 133 13 136 11 C135.34 11 134.68 11 134 11 C133.38125 9.2984375 133.38125 9.2984375 132.75 7.5625 C131.47261535 3.95651018 131.47261535 3.95651018 129.20779037 3.28485966 C126.75446274 2.96831961 124.40003879 2.87717838 121.925354 2.87974548 C120.38993706 2.87768349 120.38993706 2.87768349 118.82350159 2.87557983 C117.70644333 2.87917511 116.58938507 2.88277039 115.43847656 2.88647461 C114.25771042 2.88632858 113.07694427 2.88618256 111.86039734 2.8860321 C108.62724892 2.88660912 105.39414385 2.89162216 102.16100407 2.89860606 C98.78041332 2.90486013 95.39982171 2.90544503 92.01922607 2.90663147 C85.61968579 2.90973872 79.2201626 2.91794396 72.82062984 2.92798096 C65.53410009 2.93916089 58.24756953 2.94465729 50.96103334 2.94967639 C35.97401271 2.96012707 20.98700806 2.9777148 6 3 C5.67 3.66 5.34 4.32 5 5 C4.34 5 3.68 5 3 5 C3 4.34 3 3.68 3 3 C2.01 2.67 1.02 2.34 0 2 C0 1.34 0 0.68 0 0 Z " fill="#170677" transform="translate(19,3)"/>
<path d="M0 0 C0.95708359 0.00222061 1.91416718 0.00444122 2.9002533 0.00672913 C3.98129837 0.00680466 5.06234344 0.00688019 6.17614746 0.00695801 C7.94018166 0.01469994 7.94018166 0.01469994 9.73985291 0.02259827 C10.93702438 0.02401321 12.13419586 0.02542816 13.36764526 0.02688599 C17.20918732 0.03250472 21.05067208 0.04506041 24.89219666 0.05775452 C27.48920102 0.0627671 30.0862063 0.06733043 32.68321228 0.07142639 C39.06539344 0.08248024 45.44754096 0.0992366 51.82969666 0.12025452 C51.57348982 1.72682211 51.29913794 3.33050282 51.01719666 4.93275452 C50.86637634 5.82607483 50.71555603 6.71939514 50.56016541 7.63978577 C49.76005958 10.35672267 49.05467281 11.4124641 46.82969666 13.12025452 C43.41218012 14.25942669 40.79481728 14.23363932 37.19297791 14.21791077 C35.2448822 14.21307678 35.2448822 14.21307678 33.25743103 14.20814514 C31.88568558 14.19978983 30.51394078 14.19132489 29.14219666 14.18275452 C27.7587347 14.17773787 26.37527102 14.17317525 24.99180603 14.16908264 C21.60439271 14.15727981 18.21706632 14.1408147 14.82969666 14.12025452 C14.7399054 15.20367126 14.7399054 15.20367126 14.64830017 16.30897522 C14.06925095 23.02381613 13.11869299 29.50340664 11.82969666 36.12025452 C5.55969666 36.12025452 -0.71030334 36.12025452 -7.17030334 36.12025452 C-6.66361315 27.8105353 -5.77937422 19.61917778 -4.67030334 11.37025452 C-4.47440613 9.88694641 -4.47440613 9.88694641 -4.27455139 8.37367249 C-4.08372986 6.98752747 -4.08372986 6.98752747 -3.88905334 5.57337952 C-3.7179303 4.32282776 -3.7179303 4.32282776 -3.54335022 3.04701233 C-3.0169706 0.32830292 -2.79397422 0.15481155 0 0 Z " fill="#0A0A0A" transform="translate(129.17030334472656,158.87974548339844)"/>
<path d="M0 0 C6.58363388 -0.07428588 13.16702249 -0.12866699 19.75097656 -0.16479492 C21.98962658 -0.17985964 24.22824719 -0.20031533 26.46679688 -0.22631836 C29.68887602 -0.26280283 32.91056411 -0.27974983 36.1328125 -0.29296875 C37.62846237 -0.31619453 37.62846237 -0.31619453 39.15432739 -0.33988953 C44.53230634 -0.3411852 48.37012531 -0.06602857 53 3 C57.12879008 7.67929543 56 10.00311204 56 17 C37.19 17 18.38 17 -1 17 C-0.67 11.39 -0.34 5.78 0 0 Z " fill="#060606" transform="translate(187,136)"/>
<path d="M0 0 C16.5 0 33 0 50 0 C49.67 5.61 49.34 11.22 49 17 C32.17 17 15.34 17 -2 17 C-2 10 -2 10 0 0 Z " fill="#070707" transform="translate(14,136)"/>
<path d="M0 0 C2.37337317 1.67946447 3.82020788 3.06348747 4.38038635 5.98138046 C4.52191068 8.56844068 4.54013655 11.13123141 4.51757812 13.72216797 C4.5245874 14.70797852 4.53159668 15.69378906 4.53881836 16.70947266 C4.55643357 19.97066358 4.54476087 23.23098762 4.53125 26.4921875 C4.53394432 28.75896369 4.53782624 31.02573875 4.54284668 33.29251099 C4.54874689 38.04554233 4.54016326 42.79827311 4.52148438 47.55126953 C4.49872089 53.64009535 4.51179863 59.72821492 4.53577423 65.81701469 C4.55024006 70.49937239 4.54562208 75.18156316 4.53526306 79.86392593 C4.53259662 82.10858367 4.53586262 84.3532566 4.54518127 86.59789658 C4.55535648 89.73868578 4.53982995 92.87833826 4.51757812 96.01904297 C4.52567505 96.94496246 4.53377197 97.87088196 4.54211426 98.82485962 C4.4693303 104.37892539 3.72425288 107.60344081 0 112 C-4.0063193 115.24024868 -7.20140409 115.35553822 -12.26953125 115.29296875 C-12.95053391 115.28872391 -13.63153656 115.28447906 -14.33317566 115.28010559 C-16.49336459 115.2634061 -18.65259642 115.22577312 -20.8125 115.1875 C-22.28318958 115.17244174 -23.75389389 115.15875534 -25.22460938 115.14648438 C-28.81671357 115.11353214 -32.40826326 115.06181173 -36 115 C-36 111.04 -36 107.08 -36 103 C-33.59654297 102.94392578 -33.59654297 102.94392578 -31.14453125 102.88671875 C-29.03383101 102.82105252 -26.92315497 102.75460541 -24.8125 102.6875 C-23.75740234 102.66494141 -22.70230469 102.64238281 -21.61523438 102.61914062 C-20.59365234 102.58369141 -19.57207031 102.54824219 -18.51953125 102.51171875 C-17.58214111 102.48553467 -16.64475098 102.45935059 -15.67895508 102.43237305 C-12.51233336 101.92129248 -10.59658124 100.857872 -8 99 C-6.31591332 96.69111306 -6.31591332 96.69111306 -5.125 94.0625 C-4.47917969 92.78052734 -4.47917969 92.78052734 -3.8203125 91.47265625 C-2.88453603 88.65195861 -2.85485612 87.70718345 -4 85 C-5.0858126 83.25290304 -6.2378734 81.54599755 -7.4375 79.875 C-8.05496094 79.00617188 -8.67242187 78.13734375 -9.30859375 77.2421875 C-10.95289341 74.95466183 -10.95289341 74.95466183 -13 73 C-9.535 73.495 -9.535 73.495 -6 74 C-5.67 76.64 -5.34 79.28 -5 82 C-2.03 82.99 -2.03 82.99 1 84 C1.02319135 73.93369218 1.04094973 63.86739074 1.05181217 53.80106163 C1.05702613 49.12664215 1.06409678 44.45224098 1.07543945 39.77783203 C1.08632117 35.26503953 1.09228805 30.75226461 1.09487724 26.23945999 C1.09672196 24.51952462 1.10032423 22.79959019 1.10573006 21.07966232 C1.11301062 18.66685674 1.11398798 16.25412343 1.11352539 13.84130859 C1.1189183 12.77962967 1.1189183 12.77962967 1.12442017 11.69650269 C1.11613957 7.69342372 0.77136623 3.92787145 0 0 Z " fill="#F5100D" transform="translate(239,7)"/>
<path d="M0 0 C6.6 0 13.2 0 20 0 C18.37173306 12.00575494 16.73207442 24.00871554 15 36 C8.4 36 1.8 36 -5 36 C-4.54596038 32.061963 -4.08688416 28.12461836 -3.625 24.1875 C-3.49867188 23.08728516 -3.37234375 21.98707031 -3.2421875 20.85351562 C-2.41460066 13.83971718 -1.33271436 6.9359091 0 0 Z " fill="#060606" transform="translate(185,159)"/>
<path d="M0 0 C1.18613892 0.00785522 1.18613892 0.00785522 2.39624023 0.01586914 C3.67724609 0.02070313 3.67724609 0.02070313 4.98413086 0.02563477 C5.88196289 0.03401367 6.77979492 0.04239258 7.70483398 0.05102539 C8.6065332 0.05553711 9.50823242 0.06004883 10.43725586 0.06469727 C12.67234712 0.07652315 14.90730835 0.09300319 17.14233398 0.11352539 C16.05997876 12.1569024 14.83558162 24.13984566 13.14233398 36.11352539 C6.54233398 36.11352539 -0.05766602 36.11352539 -6.85766602 36.11352539 C-6.37918532 31.78011532 -5.89990506 27.44679618 -5.42016602 23.11352539 C-5.28545898 21.8927832 -5.15075195 20.67204102 -5.01196289 19.41430664 C-4.63142933 15.98022333 -4.24527861 12.54681575 -3.85766602 9.11352539 C-3.76340332 8.24727539 -3.66914063 7.38102539 -3.57202148 6.48852539 C-2.85180275 0.17427892 -2.85180275 0.17427892 0 0 Z " fill="#080808" transform="translate(224.857666015625,158.886474609375)"/>
<path d="M0 0 C16.85512253 -0.37486064 33.7089331 -0.65642829 50.56727886 -0.82899475 C58.39629163 -0.91127609 66.22270543 -1.02329577 74.05004883 -1.20703125 C80.87789511 -1.36722768 87.70385905 -1.46989288 94.53353244 -1.50541592 C98.14634251 -1.52616648 101.7537716 -1.57437444 105.36484337 -1.69168091 C129.0322758 -2.43101518 129.0322758 -2.43101518 135.57046509 3.44433594 C138.49684808 6.69920218 140.77859752 10.17718001 142.87456703 14.01025391 C144.58156775 17.02820176 146.67592379 19.64726553 148.8125 22.375 C149.50859375 23.31601562 150.2046875 24.25703125 150.921875 25.2265625 C154.17562074 29.56896752 157.58004387 33.78795593 161 38 C160.01 38.99 160.01 38.99 159 40 C159 39.34 159 38.68 159 38 C158.21625 37.7525 157.4325 37.505 156.625 37.25 C153.54544915 35.78354721 153.32980765 35.01423068 152 32 C151.29875 31.319375 150.5975 30.63875 149.875 29.9375 C148 28 148 28 148 25 C146.68 25 145.36 25 144 25 C144.4021875 26.3303125 144.4021875 26.3303125 144.8125 27.6875 C145 31 145 31 142.875 33.8125 C139.97390866 36.01985211 138.49358864 36.453024 135 37 C134.82984375 36.19175781 134.6596875 35.38351563 134.484375 34.55078125 C132.76035644 26.52087223 132.76035644 26.52087223 128 20 C127.2575 19.236875 126.515 18.47375 125.75 17.6875 C125.1725 17.130625 124.595 16.57375 124 16 C126.64 16.33 129.28 16.66 132 17 C132.103125 16.38125 132.20625 15.7625 132.3125 15.125 C133 13 133 13 136 11 C135.34 11 134.68 11 134 11 C133.38125 9.2984375 133.38125 9.2984375 132.75 7.5625 C131.47261535 3.95651018 131.47261535 3.95651018 129.20779037 3.28485966 C126.75446274 2.96831961 124.40003879 2.87717838 121.925354 2.87974548 C120.38993706 2.87768349 120.38993706 2.87768349 118.82350159 2.87557983 C117.70644333 2.87917511 116.58938507 2.88277039 115.43847656 2.88647461 C114.25771042 2.88632858 113.07694427 2.88618256 111.86039734 2.8860321 C108.62724892 2.88660912 105.39414385 2.89162216 102.16100407 2.89860606 C98.78041332 2.90486013 95.39982171 2.90544503 92.01922607 2.90663147 C85.61968579 2.90973872 79.2201626 2.91794396 72.82062984 2.92798096 C65.53410009 2.93916089 58.24756953 2.94465729 50.96103334 2.94967639 C35.97401271 2.96012707 20.98700806 2.9777148 6 3 C5.67 3.66 5.34 4.32 5 5 C4.34 5 3.68 5 3 5 C3 4.34 3 3.68 3 3 C2.01 2.67 1.02 2.34 0 2 C0 1.34 0 0.68 0 0 Z " fill="#170968" transform="translate(19,3)"/>
<path d="M0 0 C1.43931117 0.45261358 2.87638999 0.91232979 4.3125 1.375 C5.11300781 1.63023437 5.91351563 1.88546875 6.73828125 2.1484375 C9 3 9 3 12 5 C15.10208984 5.3696435 15.10208984 5.3696435 18.63671875 5.4140625 C19.93544922 5.45273438 21.23417969 5.49140625 22.57226562 5.53125 C23.94400573 5.56270517 25.31575061 5.59395251 26.6875 5.625 C28.07098785 5.66319197 29.45445223 5.70224442 30.83789062 5.7421875 C34.2251245 5.83660517 37.61235069 5.92218118 41 6 C41 8.31 41 10.62 41 13 C28.79 13 16.58 13 4 13 C3.34 17.95 2.68 22.9 2 28 C-1 26 -1 26 -2 24 C-2.09499503 22.50243129 -2.12987198 21.00057068 -2.125 19.5 C-2.12757812 18.7059375 -2.13015625 17.911875 -2.1328125 17.09375 C-2 15 -2 15 -1 13 C-11.23 13 -21.46 13 -32 13 C-32 10.69 -32 8.38 -32 6 C-21.44 6 -10.88 6 0 6 C0 4.02 0 2.04 0 0 Z " fill="#EDEDED" transform="translate(60,167)"/>
<path d="M0 0 C2.37337317 1.67946447 3.82020788 3.06348747 4.38038635 5.98138046 C4.52191068 8.56844068 4.54013655 11.13123141 4.51757812 13.72216797 C4.5245874 14.70797852 4.53159668 15.69378906 4.53881836 16.70947266 C4.55643357 19.97066358 4.54476087 23.23098762 4.53125 26.4921875 C4.53394432 28.75896369 4.53782624 31.02573875 4.54284668 33.29251099 C4.54874689 38.04554233 4.54016326 42.79827311 4.52148438 47.55126953 C4.49872089 53.64009535 4.51179863 59.72821492 4.53577423 65.81701469 C4.55024006 70.49937239 4.54562208 75.18156316 4.53526306 79.86392593 C4.53259662 82.10858367 4.53586262 84.3532566 4.54518127 86.59789658 C4.55535648 89.73868578 4.53982995 92.87833826 4.51757812 96.01904297 C4.52567505 96.94496246 4.53377197 97.87088196 4.54211426 98.82485962 C4.4693303 104.37892539 3.72425288 107.60344081 0 112 C-4.0063193 115.24024868 -7.20140409 115.35553822 -12.26953125 115.29296875 C-12.95053391 115.28872391 -13.63153656 115.28447906 -14.33317566 115.28010559 C-16.49336459 115.2634061 -18.65259642 115.22577312 -20.8125 115.1875 C-22.28318958 115.17244174 -23.75389389 115.15875534 -25.22460938 115.14648438 C-28.81671357 115.11353214 -32.40826326 115.06181173 -36 115 C-36 111.04 -36 107.08 -36 103 C-34.37449219 102.93941406 -32.74898437 102.87882812 -31.07421875 102.81640625 C-28.94530341 102.73199991 -26.81639763 102.64735196 -24.6875 102.5625 C-23.61564453 102.52318359 -22.54378906 102.48386719 -21.43945312 102.44335938 C-20.41142578 102.40146484 -19.38339844 102.35957031 -18.32421875 102.31640625 C-17.37635498 102.27974854 -16.42849121 102.24309082 -15.4519043 102.20532227 C-12.863829 102.08569813 -12.863829 102.08569813 -10 101 C-10.33 101.99 -10.66 102.98 -11 104 C-18.59 104 -26.18 104 -34 104 C-34 106.97 -34 109.94 -34 113 C-19.15 112.505 -19.15 112.505 -4 112 C-4 111.34 -4 110.68 -4 110 C-2.68 110 -1.36 110 0 110 C0 108.68 0 107.36 0 106 C0.66 106 1.32 106 2 106 C1.89243501 93.06519134 1.77978861 80.13043785 1.66066074 67.19573021 C1.60550409 61.18958723 1.55209571 55.18343932 1.50268555 49.17724609 C1.45493494 43.38060961 1.40258833 37.58403115 1.34705925 31.78746414 C1.32668414 29.57631501 1.30796317 27.36515 1.29092598 25.15397263 C1.26677463 22.05620336 1.23673485 18.95854282 1.20532227 15.86083984 C1.19668907 14.49058655 1.19668907 14.49058655 1.18788147 13.09265137 C1.13636716 8.62124139 0.89947013 4.40108449 0 0 Z " fill="#CB1E19" transform="translate(239,7)"/>
<path d="M0 0 C2.8100346 1.79363911 4.50940468 3.01880935 6 6 C6.40417552 8.96395382 6.56382171 11.08904926 4.953125 13.69140625 C2.19956032 17.0523749 0.52830876 18.83018792 -3.8125 19.3125 C-7.7307645 18.92835642 -9.21293267 17.70743683 -12 15 C-13.5121867 11.97562661 -13.17263369 9.33758466 -13 6 C-10.8474136 -0.12659206 -5.96508969 -0.97673983 0 0 Z " fill="#F6F4F9" transform="translate(39,85)"/>
<path d="M0 0 C0.66 0 1.32 0 2 0 C2.91118763 2.73356288 3.12904603 4.34184286 3.14044189 7.15473938 C3.14900711 8.42266327 3.14900711 8.42266327 3.15774536 9.71620178 C3.15886322 10.64041428 3.15998108 11.56462677 3.16113281 12.5168457 C3.16609772 13.49275665 3.17106262 14.4686676 3.17617798 15.47415161 C3.19080283 18.70803529 3.19760223 21.94186991 3.203125 25.17578125 C3.20887627 27.42156475 3.214634 29.66734824 3.22039795 31.91313171 C3.23090891 36.62495147 3.23675093 41.33675415 3.24023438 46.04858398 C3.24571871 52.0846061 3.26974523 58.12040259 3.29820633 64.15635395 C3.31683508 68.79663247 3.32203845 73.43685667 3.32357025 78.07716942 C3.32659685 80.30230124 3.33462561 82.5274321 3.34775543 84.75252724 C3.36482024 87.86684937 3.36293441 90.98062071 3.35644531 94.0949707 C3.3656601 95.0131105 3.37487488 95.93125031 3.3843689 96.87721252 C3.34442312 103.00083573 2.51039729 107.48960271 -2 112 C-4.125 111.625 -4.125 111.625 -6 111 C-4.7934375 109.824375 -4.7934375 109.824375 -3.5625 108.625 C-0.42005416 105.40590914 0.1254694 104.13959884 0.12025452 99.81124878 C0.12162918 98.93342743 0.12300385 98.05560608 0.12442017 97.15118408 C0.12082489 96.18589783 0.11722961 95.22061157 0.11352539 94.22607422 C0.11367142 93.21141083 0.11381744 92.19674744 0.1139679 91.15133667 C0.11326928 87.78576546 0.10547922 84.42024908 0.09765625 81.0546875 C0.09579189 78.72584056 0.09436807 76.39699323 0.09336853 74.06814575 C0.08954476 67.92949344 0.07971566 61.79086467 0.06866455 55.65222168 C0.05844742 49.39184894 0.05387026 43.13147241 0.04882812 36.87109375 C0.03809329 24.5807188 0.02101853 12.29036136 0 0 Z " fill="#FEC5C3" transform="translate(242,9)"/>
<path d="M0 0 C8.5880572 -0.02312635 17.17610149 -0.04091658 25.76418209 -0.05181217 C29.751572 -0.05704036 33.73894067 -0.06413684 37.72631836 -0.07543945 C41.57125114 -0.08627061 45.41616345 -0.09227732 49.26111031 -0.09487724 C50.73118983 -0.09673108 52.20126818 -0.10035091 53.67133904 -0.10573006 C55.72354467 -0.11294355 57.77566467 -0.11399081 59.82788086 -0.11352539 C61.58327431 -0.11685631 61.58327431 -0.11685631 63.37413025 -0.12025452 C66 0 66 0 67 1 C67.04063832 2.66617115 67.042721 4.33388095 67 6 C67.66 6 68.32 6 69 6 C68.67 6.99 68.34 7.98 68 9 C66.824375 8.0409375 66.824375 8.0409375 65.625 7.0625 C61.85024837 4.09662372 60.01277121 3.86420376 55.26513672 3.79467773 C54.06404266 3.77473251 52.86294861 3.75478729 51.62545776 3.73423767 C50.32335358 3.71752518 49.02124939 3.70081268 47.6796875 3.68359375 C46.33732462 3.66302375 44.99496821 3.64202727 43.65261841 3.62062073 C40.11811562 3.56540469 36.58355443 3.51599342 33.0489502 3.46777344 C29.44273678 3.41755496 25.83660828 3.36187071 22.23046875 3.30664062 C15.15371951 3.19906483 8.07689416 3.09761858 1 3 C0.67 2.01 0.34 1.02 0 0 Z " fill="#FEE5E3" transform="translate(173,0)"/>
<path d="M0 0 C0.66 0 1.32 0 2 0 C2.33 1.32 2.66 2.64 3 4 C4.32 4.33 5.64 4.66 7 5 C7 5.66 7 6.32 7 7 C36.37 7 65.74 7 96 7 C96.495 8.485 96.495 8.485 97 10 C85.6299195 10.09272773 74.25992913 10.16377926 62.88954735 10.20724869 C57.60965991 10.22811311 52.3300314 10.25641012 47.05029297 10.30175781 C41.95392948 10.345256 36.85781487 10.36914573 31.76128006 10.37950897 C29.81802071 10.38689318 27.8747748 10.40131288 25.93162155 10.42292023 C23.20720865 10.45200697 20.48382083 10.4559538 17.75927734 10.45410156 C16.55733734 10.47567322 16.55733734 10.47567322 15.33111572 10.49768066 C10.09193399 10.45920235 7.18147347 9.42433404 3 6 C0 2.6 0 2.6 0 0 Z " fill="#423682" transform="translate(9,112)"/>
<path d="M0 0 C5.22679133 1.74226378 8.24705322 6.37185759 11 11 C11.4990261 14.2702136 11.05565977 15.77437293 10 19 C9.01 19.495 9.01 19.495 8 20 C7.07832031 19.5359375 6.15664062 19.071875 5.20703125 18.59375 C-1.30320673 15.62458212 -8.9174892 16.52570587 -15.92382812 16.47265625 C-17.05884766 16.45074219 -18.19386719 16.42882812 -19.36328125 16.40625 C-20.39751221 16.39916016 -21.43174316 16.39207031 -22.49731445 16.38476562 C-23.32320068 16.25779297 -24.14908691 16.13082031 -25 16 C-27.29013653 12.5647952 -27.17842973 11.014669 -27 7 C-25.35 6.34 -23.7 5.68 -22 5 C-22.33 7.97 -22.66 10.94 -23 14 C-15.08 14.33 -7.16 14.66 1 15 C1 14.34 1 13.68 1 13 C1.66 13 2.32 13 3 13 C3.76956136 10.65466049 3.76956136 10.65466049 4 8 C2.62514468 6.45833358 2.62514468 6.45833358 1 5 C0.3125 2.3125 0.3125 2.3125 0 0 Z " fill="#1D1267" transform="translate(180,44)"/>
<path d="M0 0 C0.99 0.495 0.99 0.495 2 1 C2 1.66 2 2.32 2 3 C0.97874385 3.00496522 0.97874385 3.00496522 -0.06314373 3.01003075 C-16.63019846 3.09125468 -33.19715352 3.18334513 -49.76407909 3.28752708 C-57.77572407 3.33764673 -65.78735884 3.38408973 -73.79907227 3.421875 C-80.78216195 3.45481835 -87.76517234 3.49466253 -94.74817449 3.54279006 C-98.44554348 3.56803177 -102.14286002 3.5898199 -105.84029198 3.60334396 C-109.96810676 3.61857154 -114.09566942 3.64920554 -118.22338867 3.68115234 C-119.44906052 3.68331253 -120.67473236 3.68547272 -121.93754578 3.68769836 C-123.62647949 3.70444359 -123.62647949 3.70444359 -125.34953308 3.7215271 C-126.32571185 3.72705786 -127.30189062 3.73258862 -128.30765057 3.73828697 C-131.19183395 4.01864745 -133.37603655 4.79903135 -136 6 C-135.67 4.68 -135.34 3.36 -135 2 C-131.81062192 1.05564657 -128.9554423 0.87867234 -125.63510132 0.88647461 C-124.54706711 0.8865451 -123.4590329 0.8866156 -122.33802795 0.88668823 C-121.14930588 0.89185455 -119.9605838 0.89702087 -118.73583984 0.90234375 C-116.80859828 0.90458517 -114.88135672 0.90682633 -112.95411515 0.90905762 C-110.88537954 0.91242621 -108.81666409 0.91827922 -106.74793625 0.92483521 C-102.43723533 0.93835831 -98.12654472 0.94425163 -93.81582642 0.94897461 C-84.66887049 0.96007191 -75.52193924 0.97961708 -66.375 1 C-56.49358547 1.02200753 -46.61218095 1.04258225 -36.73074687 1.05341816 C-32.44278906 1.05840972 -28.15487818 1.06828254 -23.86693931 1.08184814 C-20.57975548 1.09103443 -17.29256487 1.09382248 -14.00537109 1.09765625 C-12.81260056 1.10282257 -11.61983002 1.10798889 -10.39091492 1.11331177 C-8.76732307 1.11341751 -8.76732307 1.11341751 -7.1109314 1.11352539 C-5.69455415 1.11685631 -5.69455415 1.11685631 -4.24956322 1.12025452 C-1.96367724 1.14801817 -1.96367724 1.14801817 0 0 Z " fill="#E8E1FE" transform="translate(148,0)"/>
<path d="M0 0 C0.61748865 2.90219665 0.8491405 4.21070212 0 7 C-2.05078125 9.1171875 -2.05078125 9.1171875 -4.6875 11.3125 C-12.52290974 17.84016101 -15.25225503 25.14907379 -17 35 C-19 33 -19 33 -19.125 30.375 C-19.08375 29.59125 -19.0425 28.8075 -19 28 C-18.34 28 -17.68 28 -17 28 C-17.350625 27.2575 -17.70125 26.515 -18.0625 25.75 C-19.04510094 22.86770391 -19.18154896 21.75694758 -18 19 C-17.34 18.67 -16.68 18.34 -16 18 C-15.34 18.33 -14.68 18.66 -14 19 C-13.67 17.02 -13.34 15.04 -13 13 C-12.01 12.67 -11.02 12.34 -10 12 C-10.33 11.67 -10.66 11.34 -11 11 C-11.04080783 9.00041636 -11.04254356 6.99954746 -11 5 C-9.68 5 -8.36 5 -7 5 C-7 4.01 -7 3.02 -7 2 C-4.35261084 0.5393715 -3.10551666 0 0 0 Z " fill="#1B0D76" transform="translate(109,65)"/>
<path d="M0 0 C0 0.99 0 1.98 0 3 C-7.59 3 -15.18 3 -23 3 C-23 5.97 -23 8.94 -23 12 C-8.15 11.505 -8.15 11.505 7 11 C7 10.34 7 9.68 7 9 C8.32 9 9.64 9 11 9 C11 7.68 11 6.36 11 5 C12.32 4.67 13.64 4.34 15 4 C12.50099424 8.90545575 11.07943005 11.51388005 6 14 C2.58666992 14.34057617 2.58666992 14.34057617 -1.26953125 14.29296875 C-1.95053391 14.28872391 -2.63153656 14.28447906 -3.33317566 14.28010559 C-5.49336459 14.2634061 -7.65259642 14.22577312 -9.8125 14.1875 C-11.28318958 14.17244174 -12.75389389 14.15875534 -14.22460938 14.14648438 C-17.81671357 14.11353214 -21.40826326 14.06181173 -25 14 C-25 10.04 -25 6.08 -25 2 C-23.36289063 1.93941406 -21.72578125 1.87882812 -20.0390625 1.81640625 C-17.9010322 1.73201032 -15.76301186 1.64736185 -13.625 1.5625 C-12.54476562 1.52318359 -11.46453125 1.48386719 -10.3515625 1.44335938 C-8.8046875 1.38051758 -8.8046875 1.38051758 -7.2265625 1.31640625 C-6.27346191 1.27974854 -5.32036133 1.24309082 -4.33837891 1.20532227 C-1.97867651 1.14236535 -1.97867651 1.14236535 0 0 Z " fill="#D43F41" transform="translate(228,108)"/>
<path d="M0 0 C2.475 0.99 2.475 0.99 5 2 C5.33 4.31 5.66 6.62 6 9 C6.66 9 7.32 9 8 9 C8.433125 9.886875 8.86625 10.77375 9.3125 11.6875 C10.90449579 14.9167055 10.90449579 14.9167055 12.5625 17.5625 C13.98857851 19.98063313 15.02400096 22.37231026 16 25 C16.66 25 17.32 25 18 25 C18.17015625 25.62648438 18.3403125 26.25296875 18.515625 26.8984375 C18.75796875 27.71570313 19.0003125 28.53296875 19.25 29.375 C19.48203125 30.18710937 19.7140625 30.99921875 19.953125 31.8359375 C21.23568792 34.48720562 22.36627894 34.85305696 25 36 C25.75 38.125 25.75 38.125 26 40 C20.94020433 37.12003071 18.47644633 34.13433698 15.8125 28.9375 C15.05121728 27.5172961 14.28810961 26.09806934 13.5234375 24.6796875 C13.1222168 23.9278418 12.72099609 23.17599609 12.30761719 22.40136719 C9.48014334 17.20886666 6.44456683 12.13282419 3.4543457 7.03295898 C3.00406006 6.26024658 2.55377441 5.48753418 2.08984375 4.69140625 C1.48450806 3.65802124 1.48450806 3.65802124 0.86694336 2.60375977 C0 1 0 1 0 0 Z " fill="#CB2929" transform="translate(183,18)"/>
<path d="M0 0 C0.33 0 0.66 0 1 0 C1.05422947 1.4370809 1.09289723 2.87475462 1.125 4.3125 C1.14820312 5.11300781 1.17140625 5.91351563 1.1953125 6.73828125 C1 9 1 9 -1 12 C-0.62068453 15.03452373 0.25040681 16.37561021 2 19 C-3.28 19 -8.56 19 -14 19 C-10.60402152 15.60402152 -8.53841201 13.58056178 -4.75 11.1875 C-2.39771412 9.49403103 -1.20540178 8.60418716 -0.265625 5.83984375 C0.07194185 3.39691774 0.07194185 3.39691774 0 0 Z " fill="#F5F1FB" transform="translate(103,30)"/>
<path d="M0 0 C7.73660514 -0.06959394 15.47317771 -0.12285889 23.21002483 -0.15543652 C26.80280829 -0.17107439 30.39537715 -0.19227779 33.98803711 -0.22631836 C37.45694391 -0.25897965 40.92564464 -0.27686714 44.39469337 -0.28463173 C46.35838752 -0.29285018 48.32199908 -0.31625892 50.28556824 -0.33988953 C51.4864357 -0.34011612 52.68730316 -0.34034271 53.92456055 -0.34057617 C54.97935104 -0.34723801 56.03414154 -0.35389984 57.12089539 -0.36076355 C60.40434683 0.05066631 62.30812723 1.12265339 65 3 C62.50907189 4.24546405 61.58919267 3.7767578 59 3 C59 2.34 59 1.68 59 1 C51.809822 1.09228786 44.619981 1.19959629 37.43017578 1.31738281 C34.98393855 1.35568134 32.53764484 1.39053264 30.09130859 1.421875 C26.57629194 1.46750605 23.06166445 1.52550457 19.546875 1.5859375 C18.4519574 1.59748871 17.35703979 1.60903992 16.22894287 1.62094116 C15.20818665 1.64081085 14.18743042 1.66068054 13.13574219 1.68115234 C11.79005157 1.70113785 11.79005157 1.70113785 10.41717529 1.7215271 C7.82798546 2.01981709 6.19345745 2.60815043 4 4 C3.67 4.66 3.34 5.32 3 6 C2.01 4.02 1.02 2.04 0 0 Z " fill="#AF2526" transform="translate(174,3)"/>
<path d="M0 0 C-1.04116502 2.10643108 -2.10402036 4.19303779 -3.21875 6.26171875 C-6.15691295 11.82452117 -7.90082839 16.80466908 -9 23 C-11 21 -11 21 -11.125 18.375 C-11.08375 17.59125 -11.0425 16.8075 -11 16 C-10.34 16 -9.68 16 -9 16 C-9.350625 15.2575 -9.70125 14.515 -10.0625 13.75 C-11.04510094 10.86770391 -11.18154896 9.75694758 -10 7 C-9.34 6.67 -8.68 6.34 -8 6 C-7.34 6.33 -6.68 6.66 -6 7 C-5.67 5.02 -5.34 3.04 -5 1 C-2 0 -2 0 0 0 Z " fill="#1C0F64" transform="translate(101,77)"/>
<path d="M0 0 C0.33 0 0.66 0 1 0 C1.07455949 4.02009457 1.12879358 8.03991733 1.16479492 12.06054688 C1.17981428 13.42617816 1.20023608 14.79176176 1.22631836 16.15722656 C1.26300137 18.12803905 1.27818551 20.09921408 1.29296875 22.0703125 C1.31653442 23.84559326 1.31653442 23.84559326 1.34057617 25.65673828 C0.86348133 30.34013384 -0.6722324 33.6722324 -4 37 C-6.125 36.625 -6.125 36.625 -8 36 C-7.21625 35.236875 -6.4325 34.47375 -5.625 33.6875 C-1.54714333 29.51255151 -0.74148656 27.31142155 -0.5859375 21.58203125 C-0.52792969 19.70161133 -0.52792969 19.70161133 -0.46875 17.78320312 C-0.42234375 15.81770508 -0.42234375 15.81770508 -0.375 13.8125 C-0.33680662 12.4771884 -0.29775409 11.14190108 -0.2578125 9.80664062 C-0.16340847 6.53790112 -0.07782983 3.26916936 0 0 Z " fill="#FDE1DE" transform="translate(244,84)"/>
<path d="M0 0 C0.66 0 1.32 0 2 0 C2 2.64 2 5.28 2 8 C5.63 8 9.26 8 13 8 C13.99 10.31 14.98 12.62 16 15 C15.01 15.33 14.02 15.66 13 16 C12.34 14.35 11.68 12.7 11 11 C10.34 11 9.68 11 9 11 C9 10.34 9 9.68 9 9 C6.36 9 3.72 9 1 9 C-1.125 3.375 -1.125 3.375 0 0 Z " fill="#24186B" transform="translate(89,104)"/>
<path d="M0 0 C0 3 0 6 0 9 C7.59 9.33 15.18 9.66 23 10 C23 10.33 23 10.66 23 11 C18.87513162 11.08676908 14.75049616 11.14031295 10.625 11.1875 C9.449375 11.21263672 8.27375 11.23777344 7.0625 11.26367188 C5.94101563 11.27333984 4.81953125 11.28300781 3.6640625 11.29296875 C2.62717285 11.3086792 1.5902832 11.32438965 0.52197266 11.34057617 C-0.31027832 11.22818604 -1.1425293 11.1157959 -2 11 C-4.29013653 7.5647952 -4.17842973 6.014669 -4 2 C-2.68 1.34 -1.36 0.68 0 0 Z " fill="#433680" transform="translate(157,49)"/>
<path d="M0 0 C0.66 0 1.32 0 2 0 C3.125 4.75 3.125 4.75 2 7 C1.01 7.33 0.02 7.66 -1 8 C-1.04125 8.7425 -1.0825 9.485 -1.125 10.25 C-2.34857383 14.09551776 -4.59346582 15.04305483 -8 17 C-7.73445312 16.47921875 -7.46890625 15.9584375 -7.1953125 15.421875 C-5.69878689 12.38969892 -4.28808257 9.32191863 -2.875 6.25 C-2.33617187 5.07953125 -1.79734375 3.9090625 -1.2421875 2.703125 C-0.83226562 1.81109375 -0.42234375 0.9190625 0 0 Z " fill="#D42026" transform="translate(237,93)"/>
<path d="M0 0 C-2.3125 1.5625 -2.3125 1.5625 -5 3 C-5.99 2.67 -6.98 2.34 -8 2 C-10.73289293 1.77202438 -13.45042204 1.58331813 -16.1875 1.4375 C-16.93708984 1.39431641 -17.68667969 1.35113281 -18.45898438 1.30664062 C-20.30578375 1.20077315 -22.15286834 1.0999024 -24 1 C-24 3.64 -24 6.28 -24 9 C-24.33 9 -24.66 9 -25 9 C-25 6.03 -25 3.06 -25 0 C-21.20873402 -0.19628414 -17.41697828 -0.38053896 -13.625 -0.5625 C-12.54476562 -0.61857422 -11.46453125 -0.67464844 -10.3515625 -0.73242188 C-9.3203125 -0.78076172 -8.2890625 -0.82910156 -7.2265625 -0.87890625 C-6.27346191 -0.9260376 -5.32036133 -0.97316895 -4.33837891 -1.02172852 C-2 -1 -2 -1 0 0 Z " fill="#E71619" transform="translate(230,111)"/>
<path d="M0 0 C8.58 0 17.16 0 26 0 C26 0.33 26 0.66 26 1 C24.74703125 1.04898437 23.4940625 1.09796875 22.203125 1.1484375 C20.55206179 1.22348583 18.90102119 1.29903277 17.25 1.375 C16.0125 1.42140625 16.0125 1.42140625 14.75 1.46875 C13.95078125 1.50742188 13.1515625 1.54609375 12.328125 1.5859375 C11.22839355 1.63306885 11.22839355 1.63306885 10.10644531 1.68115234 C7.7121041 2.04357812 6.06004147 2.73647048 4 4 C3.67 4.66 3.34 5.32 3 6 C2.01 4.02 1.02 2.04 0 0 Z " fill="#B32D2D" transform="translate(174,3)"/>
<path d="M0 0 C0.66 0.33 1.32 0.66 2 1 C1.13321472 6.32319223 -0.85412189 10.62539941 -4 15 C-6.8125 16.5625 -6.8125 16.5625 -9 17 C-8.34 15.35 -7.68 13.7 -7 12 C-6.01 12.33 -5.02 12.66 -4 13 C-3.814375 11.329375 -3.814375 11.329375 -3.625 9.625 C-3 6 -3 6 -1 4 C-0.3574765 1.93125966 -0.3574765 1.93125966 0 0 Z " fill="#FCD0C8" transform="translate(235,92)"/>
<path d="M0 0 C0.99 0.33 1.98 0.66 3 1 C2.525625 1.825 2.05125 2.65 1.5625 3.5 C-0.23569599 7.52795901 -0.6234255 10.63173579 -1 15 C-2.32 15 -3.64 15 -5 15 C-3.8072966 9.83161862 -2.01716626 4.89883235 0 0 Z " fill="#1B0F63" transform="translate(104,23)"/>
<path d="M0 0 C-2.00858778 1.00654063 -4.01874394 2.00921007 -6.03515625 3 C-6.70417969 3.33 -7.37320313 3.66 -8.0625 4 C-9.06990234 4.495 -9.06990234 4.495 -10.09765625 5 C-12.23387615 6.08091824 -12.23387615 6.08091824 -15 8 C-15.33 6.68 -15.66 5.36 -16 4 C-10.45834744 0.22695996 -6.65545792 -0.54330269 0 0 Z " fill="#1D1064" transform="translate(122,15)"/>
<path d="M0 0 C0.99 0 1.98 0 3 0 C3.66 3.3 4.32 6.6 5 10 C3.68 9.67 2.36 9.34 1 9 C0.67 9.66 0.34 10.32 0 11 C-1.125 3.375 -1.125 3.375 0 0 Z " fill="#F5F5F5" transform="translate(62,159)"/>
<path d="M0 0 C3.9252025 3.70090521 6.94580156 7.54959656 10 12 C9.01 12.495 9.01 12.495 8 13 C8 12.34 8 11.68 8 11 C7.236875 10.773125 6.47375 10.54625 5.6875 10.3125 C2.38759866 8.70092028 1.4985764 7.31264258 0 4 C0 2.68 0 1.36 0 0 Z " fill="#211566" transform="translate(170,30)"/>
<path d="M0 0 C4.25209792 4.12324647 8.13635705 8.51282966 12 13 C11.34 13.66 10.68 14.32 10 15 C9.59007812 14.4946875 9.18015625 13.989375 8.7578125 13.46875 C8.21898437 12.8190625 7.68015625 12.169375 7.125 11.5 C6.59132812 10.8503125 6.05765625 10.200625 5.5078125 9.53125 C5.01023438 9.0259375 4.51265625 8.520625 4 8 C3.34 8 2.68 8 2 8 C1.34 5.36 0.68 2.72 0 0 Z " fill="#180E5D" transform="translate(151,6)"/>
<path d="M0 0 C1.9375 0.3125 1.9375 0.3125 4 1 C5.231394 4.69418201 4.64432764 7.2056261 4 11 C5.32 11.33 6.64 11.66 8 12 C6.35 12 4.7 12 3 12 C3 10.35 3 8.7 3 7 C2.01 6.67 1.02 6.34 0 6 C0 4.02 0 2.04 0 0 Z " fill="#E0E0E0" transform="translate(63,142)"/>
<path d="M0 0 C0.66 0 1.32 0 2 0 C2 0.66 2 1.32 2 2 C2.61875 2.20625 3.2375 2.4125 3.875 2.625 C6.84178794 4.54468631 6.89777205 6.69331614 8 10 C10.49958655 12.83459483 10.49958655 12.83459483 13 15 C10.0280615 13.87548273 7.66559313 12.77706209 5 11 C4.3125 7.875 4.3125 7.875 4 5 C3.01 4.67 2.02 4.34 1 4 C0.3125 1.9375 0.3125 1.9375 0 0 Z " fill="#D0363B" transform="translate(213,65)"/>
<path d="M0 0 C2.31 0.33 4.62 0.66 7 1 C7.33 3.64 7.66 6.28 8 9 C8.66 9 9.32 9 10 9 C10.33 10.32 10.66 11.64 11 13 C7.39986155 9.59986924 4.67818358 6.1558021 2 2 C1.34 1.34 0.68 0.68 0 0 Z " fill="#D02924" transform="translate(226,80)"/>
<path d="M0 0 C0.66 0 1.32 0 2 0 C2.33 0.66 2.66 1.32 3 2 C5.01669827 3.13350534 5.01669827 3.13350534 7 4 C6.34 4.66 5.68 5.32 5 6 C5 6.99 5 7.98 5 9 C3.68 9.33 2.36 9.66 1 10 C1 9.34 1 8.68 1 8 C0.34 8 -0.32 8 -1 8 C-1 7.34 -1 6.68 -1 6 C-0.34 6 0.32 6 1 6 C0.67 4.02 0.34 2.04 0 0 Z " fill="#14066D" transform="translate(99,62)"/>
<path d="M0 0 C3.75376152 1.25125384 4.24073289 2.5652404 6 6 C6 6.66 6 7.32 6 8 C6.639375 8.2475 7.27875 8.495 7.9375 8.75 C10 10 10 10 10.75 12.125 C10.87375 13.053125 10.87375 13.053125 11 14 C4.73913368 10.79676607 2.72869272 6.32670347 0 0 Z " fill="#C82D32" transform="translate(198,44)"/>
<path d="M0 0 C3.63 0 7.26 0 11 0 C10.48964169 4.3890815 9.47785723 7.33708062 7 11 C5.72648692 8.45297384 6.19808075 7.5717055 6.9375 4.875 C7.13214844 4.15054688 7.32679687 3.42609375 7.52734375 2.6796875 C7.76130859 1.84824219 7.76130859 1.84824219 8 1 C5.36 1 2.72 1 0 1 C0 0.67 0 0.34 0 0 Z " fill="#1B0D5B" transform="translate(95,50)"/>
<path d="M0 0 C0.99 0 1.98 0 3 0 C3.13277344 0.61488281 3.26554687 1.22976562 3.40234375 1.86328125 C3.57894531 2.67152344 3.75554688 3.47976562 3.9375 4.3125 C4.19853516 5.51326172 4.19853516 5.51326172 4.46484375 6.73828125 C4.99886159 9.145401 4.99886159 9.145401 6 12 C3 11 3 11 1.3125 8.8125 C-0.17161628 5.63225084 -0.24194353 3.46785727 0 0 Z " fill="#1A0D5C" transform="translate(23,91)"/>
<path d="M0 0 C0.66 0.33 1.32 0.66 2 1 C1.236875 1.7425 0.47375 2.485 -0.3125 3.25 C-2.93527647 5.81037291 -2.93527647 5.81037291 -4.625 8.1875 C-6 10 -6 10 -9 12 C-7.72210402 6.03648545 -4.66283606 3.51582826 0 0 Z " fill="#EBE8F9" transform="translate(113,18)"/>
<path d="M0 0 C-2.36689329 2.19219402 -3.51727269 2.9871902 -6.796875 3.07421875 C-7.77140625 2.94660156 -8.7459375 2.81898437 -9.75 2.6875 C-10.73484375 2.56761719 -11.7196875 2.44773437 -12.734375 2.32421875 C-13.48203125 2.21722656 -14.2296875 2.11023438 -15 2 C-14.67 1.34 -14.34 0.68 -14 0 C-11.98177083 0.03255208 -9.96354167 0.06510417 -7.9453125 0.09765625 C-0.86009174 -0.25802752 -0.86009174 -0.25802752 0 0 Z " fill="#190C63" transform="translate(44,103)"/>
<path d="M0 0 C0.66 0.33 1.32 0.66 2 1 C-0.51407619 5.28324091 -2.12314139 7.64531705 -7 9 C-7.33 8.34 -7.66 7.68 -8 7 C-7.34 7 -6.68 7 -6 7 C-6 6.34 -6 5.68 -6 5 C-4.68 5 -3.36 5 -2 5 C-2 3.68 -2 2.36 -2 1 C-1.34 0.67 -0.68 0.34 0 0 Z " fill="#CE272A" transform="translate(241,112)"/>
<path d="M0 0 C0.66 0 1.32 0 2 0 C2.33 1.32 2.66 2.64 3 4 C4.32 4.33 5.64 4.66 7 5 C7 5.66 7 6.32 7 7 C7.99 7.33 8.98 7.66 10 8 C9.01 8.33 8.02 8.66 7 9 C1.41176471 5.08823529 1.41176471 5.08823529 0.125 1.6875 C0.08375 1.130625 0.0425 0.57375 0 0 Z " fill="#1E115A" transform="translate(9,112)"/>
<path d="M0 0 C1.5 1.3125 1.5 1.3125 3 3 C3 3.99 3 4.98 3 6 C3.99 6.33 4.98 6.66 6 7 C6.6875 9.0625 6.6875 9.0625 7 11 C4.0625 9.4375 4.0625 9.4375 1 7 C0.125 3.25 0.125 3.25 0 0 Z " fill="#FEDCD2" transform="translate(207,57)"/>
<path d="M0 0 C3.09998746 0.33214151 4.0545012 1.0545012 6.3125 3.3125 C8 6 8 6 7.60546875 8.16796875 C7.40566406 8.77253906 7.20585937 9.37710938 7 10 C5.83043409 8.52312468 4.66441854 7.04343707 3.5 5.5625 C2.8503125 4.73878906 2.200625 3.91507813 1.53125 3.06640625 C0 1 0 1 0 0 Z " fill="#ECE9FA" transform="translate(171,30)"/>
<path d="M0 0 C2 2 2 2 2.25 5 C2 8 2 8 0 10 C-0.66 9.01 -1.32 8.02 -2 7 C-1.125 3.3125 -1.125 3.3125 0 0 Z " fill="#E3DEF5" transform="translate(43,89)"/>
<path d="M0 0 C0.33 0 0.66 0 1 0 C1.46551724 8.06896552 1.46551724 8.06896552 -0.25 11.5 C-2.17845335 13.15296001 -3.50289018 13.65557106 -6 14 C-5 11 -5 11 -3 9.8125 C0.12329153 6.98201705 -0.27011223 4.11921158 0 0 Z " fill="#D6D0ED" transform="translate(103,30)"/>
<path d="M0 0 C3.03869411 1.51934706 3.64410306 3.98004772 5 7 C5 7.66 5 8.32 5 9 C5.66 9 6.32 9 7 9 C6.67 9.66 6.34 10.32 6 11 C1.9957657 7.50912907 0.37328935 5.35048061 0 0 Z " fill="#D52228" transform="translate(194,34)"/>
<path d="M0 0 C0.99 0 1.98 0 3 0 C3.1875 3.375 3.1875 3.375 3 7 C2.01 7.66 1.02 8.32 0 9 C-0.33 8.01 -0.66 7.02 -1 6 C-0.34 6 0.32 6 1 6 C0.67 4.02 0.34 2.04 0 0 Z " fill="#332B6F" transform="translate(106,65)"/>
<path d="M0 0 C0.66 0 1.32 0 2 0 C1.67 3.96 1.34 7.92 1 12 C0.67 12 0.34 12 0 12 C-2.21538462 4.61538462 -2.21538462 4.61538462 -1.125 1.5 C-0.75375 1.005 -0.3825 0.51 0 0 Z " fill="#D5D5D5" transform="translate(182,167)"/>
<path d="M0 0 C0.66 0 1.32 0 2 0 C3.125 4.75 3.125 4.75 2 7 C1.01 7 0.02 7 -1 7 C-0.67 4.69 -0.34 2.38 0 0 Z " fill="#DE1D18" transform="translate(237,93)"/>
<path d="M0 0 C0 2.64 0 5.28 0 8 C-0.61875 7.21625 -1.2375 6.4325 -1.875 5.625 C-3.89858661 3.03162353 -3.89858661 3.03162353 -6 1 C-4 0 -4 0 0 0 Z " fill="#F51617" transform="translate(221,65)"/>
<path d="M0 0 C0.66 0.33 1.32 0.66 2 1 C2 2.65 2 4.3 2 6 C2.66 6 3.32 6 4 6 C3.67 6.99 3.34 7.98 3 9 C0.9375 6.75 0.9375 6.75 -1 4 C-0.75 1.6875 -0.75 1.6875 0 0 Z " fill="#FBE3DF" transform="translate(238,0)"/>
<path d="M0 0 C0.66 0.99 1.32 1.98 2 3 C1.01 4.32 0.02 5.64 -1 7 C-1.99 6.67 -2.98 6.34 -4 6 C-3.67 5.01 -3.34 4.02 -3 3 C-2.34 3 -1.68 3 -1 3 C-0.67 2.01 -0.34 1.02 0 0 Z " fill="#231576" transform="translate(184,54)"/>
<path d="M0 0 C2.78388975 1.70625501 3.85384206 2.47626739 4.75 5.6875 C4.8325 6.450625 4.915 7.21375 5 8 C4.01 8.495 4.01 8.495 3 9 C1.68 6.36 0.36 3.72 -1 1 C-0.67 0.67 -0.34 0.34 0 0 Z " fill="#D1292D" transform="translate(179,9)"/>
<path d="M0 0 C1.65 0 3.3 0 5 0 C5.66 1.65 6.32 3.3 7 5 C4 5 4 5 1.8125 3.0625 C0 1 0 1 0 0 Z " fill="#26196B" transform="translate(38,83)"/>
<path d="M0 0 C-3.18762365 2.12508244 -5.26512223 2.5020163 -9 3 C-9.33 2.34 -9.66 1.68 -10 1 C-6.52674819 -0.1577506 -3.63932552 -0.06866652 0 0 Z " fill="#E2DDF2" transform="translate(125,16)"/>
<path d="M0 0 C1.2065625 0.0309375 1.2065625 0.0309375 2.4375 0.0625 C1.7775 1.7125 1.1175 3.3625 0.4375 5.0625 C-0.5525 5.0625 -1.5425 5.0625 -2.5625 5.0625 C-3.125 3.125 -3.125 3.125 -3.5625 1.0625 C-2.5625 0.0625 -2.5625 0.0625 0 0 Z " fill="#E5150F" transform="translate(180.5625,4.9375)"/>
<path d="M0 0 C0.66 0.33 1.32 0.66 2 1 C1.67 3.31 1.34 5.62 1 8 C0.34 8 -0.32 8 -1 8 C-1.625 5.6875 -1.625 5.6875 -2 3 C-1.34 2.01 -0.68 1.02 0 0 Z " fill="#F7F8F4" transform="translate(245,112)"/>
<path d="M0 0 C-1.15173355 2.46800047 -2.04783565 4.04783565 -4 6 C-4.33 4.35 -4.66 2.7 -5 1 C-2 0 -2 0 0 0 Z " fill="#221762" transform="translate(101,77)"/>
<path d="M0 0 C0.66 0.33 1.32 0.66 2 1 C2 1.66 2 2.32 2 3 C2.66 3.33 3.32 3.66 4 4 C3.67 4.66 3.34 5.32 3 6 C1.68 6 0.36 6 -1 6 C-0.67 4.02 -0.34 2.04 0 0 Z " fill="#ED1408" transform="translate(221,69)"/>
<path d="M0 0 C3.99996286 1.33332095 4.83782337 3.4957827 7 7 C6.01 7 5.02 7 4 7 C0 2.65714286 0 2.65714286 0 0 Z " fill="#2A1F69" transform="translate(156,13)"/>
</svg>
